<svg width="24" height="24" viewBox="0 0 24 24" fill="none" xmlns="http://www.w3.org/2000/svg">
<path d="M11.9922 16L8.49219 12.5M11.9922 4V16V4ZM11.9922 16L15.4922 12.5L11.9922 16Z" stroke="#2C52E8" stroke-width="1.5" stroke-linecap="round" stroke-linejoin="round"/>
<path d="M4.21265 11.9485C4.00008 13 4 13.5 4.21268 14.3743C4.4875 15.2503 5.02152 16.0687 5.77519 16.7689C6.52886 17.4691 7.48288 18.0331 8.5666 18.4194C9.65033 18.8056 10.836 19.004 12.0358 19C13.2357 18.9959 14.4189 18.7895 15.498 18.3961C16.5771 18.0026 17.5243 17.4321 18.2696 16.7269C19.0148 16.0216 19.5391 15.1997 19.8034 14.3219C20 13.5 20 13 19.8035 11.9058L18.3479 11.9058C18.5667 12.6198 18.5686 13.3616 18.3533 14.0763C18.1381 14.7909 17.7113 15.4601 17.1045 16.0343C16.4977 16.6085 15.7265 17.073 14.848 17.3933C13.9694 17.7137 13.006 17.8817 12.0292 17.885C11.0523 17.8883 10.087 17.7267 9.20462 17.4123C8.32228 17.0979 7.54554 16.6386 6.93192 16.0685C6.3183 15.4984 5.88352 14.8321 5.65977 14.1189C5.43601 13.4058 5.42901 12.664 5.6393 11.9485L4.21265 11.9485Z" fill="#2C52E8"/>
</svg>
