<svg width="24" height="22" viewBox="0 0 24 22" fill="none" xmlns="http://www.w3.org/2000/svg">
<path d="M17.0051 19.25H7.00513C4.79599 19.25 3.00513 17.4159 3.00513 15.1536V8.70957C3.00513 7.27713 3.73574 5.94875 4.93192 5.20632L10.0051 1.50982C11.2794 0.71893 12.7308 0.718938 14.0051 1.50983L19.0783 5.20632C20.2745 5.94875 21.0051 7.27713 21.0051 8.70957V15.1536C21.0051 17.4159 19.2142 19.25 17.0051 19.25Z" stroke="#A3A3A3" stroke-width="1.5" stroke-linecap="round" stroke-linejoin="round"/>
<path d="M8.99731 13.3333C8.99731 13.0572 9.22117 12.8333 9.49731 12.8333H10.4973C10.7735 12.8333 10.9973 13.0572 10.9973 13.3333V14.1667C10.9973 14.4428 10.7735 14.6667 10.4973 14.6667H9.49731C9.22117 14.6667 8.99731 14.4428 8.99731 14.1667V13.3333Z" fill="#A3A3A3"/>
<path d="M8.99731 10.5833C8.99731 10.3072 9.22117 10.0833 9.49731 10.0833H10.4973C10.7735 10.0833 10.9973 10.3072 10.9973 10.5833V11.4167C10.9973 11.6928 10.7735 11.9167 10.4973 11.9167H9.49731C9.22117 11.9167 8.99731 11.6928 8.99731 11.4167V10.5833Z" fill="#A3A3A3"/>
<path d="M12.9973 13.3333C12.9973 13.0572 13.2212 12.8333 13.4973 12.8333H14.4973C14.7735 12.8333 14.9973 13.0572 14.9973 13.3333V14.1667C14.9973 14.4428 14.7735 14.6667 14.4973 14.6667H13.4973C13.2212 14.6667 12.9973 14.4428 12.9973 14.1667V13.3333Z" fill="#A3A3A3"/>
<path d="M12.9973 10.5833C12.9973 10.3072 13.2212 10.0833 13.4973 10.0833H14.4973C14.7735 10.0833 14.9973 10.3072 14.9973 10.5833V11.4167C14.9973 11.6928 14.7735 11.9167 14.4973 11.9167H13.4973C13.2212 11.9167 12.9973 11.6928 12.9973 11.4167V10.5833Z" fill="#A3A3A3"/>
</svg>
